<svg width="24" height="24" viewBox="0 0 24 24" fill="none" xmlns="http://www.w3.org/2000/svg">
<path d="M11.1634 1.46119C11.4201 0.846422 12.291 0.846423 12.5477 1.46119L15.0042 7.34579C15.1067 7.59148 15.3319 7.76438 15.5957 7.80009L22.0598 8.67498C22.71 8.76297 22.9417 9.58446 22.4334 9.99928L17.438 14.0756C17.2166 14.2564 17.1171 14.5473 17.1815 14.8258L18.7789 21.7284C18.934 22.3986 18.1804 22.9066 17.6173 22.5114L12.2864 18.7698C12.0278 18.5884 11.6833 18.5884 11.4247 18.7698L6.09371 22.5114C5.53067 22.9066 4.77708 22.3986 4.93215 21.7285L6.52939 14.8258C6.59383 14.5473 6.49435 14.2564 6.27288 14.0756L1.27767 9.99928C0.76935 9.58446 1.0011 8.76298 1.65127 8.67498L8.11539 7.80009C8.37922 7.76438 8.60435 7.59148 8.70691 7.34579L11.1634 1.46119Z" stroke="#BFCC94" stroke-width="2" stroke-miterlimit="3.3292" stroke-linecap="round" stroke-linejoin="round"/>
</svg>
